<svg width="32" height="32" viewBox="0 0 32 32" fill="none" xmlns="http://www.w3.org/2000/svg">
  <rect width="32" height="32" rx="8" fill="url(#gradient)"/>
  <path d="M8 20H24V22C24 23.1 23.1 24 22 24H10C8.9 24 8 23.1 8 22V20Z" fill="white"/>
  <path d="M12 16V20H20V16C20 14.9 19.1 14 18 14H14C12.9 14 12 14.9 12 16Z" fill="white" opacity="0.8"/>
  <path d="M16 8V14M13 11L19 11M14 13L18 13" stroke="white" stroke-width="1.5" stroke-linecap="round"/>
  <circle cx="10" cy="18" r="1" fill="white" opacity="0.6"/>
  <circle cx="22" cy="18" r="1" fill="white" opacity="0.6"/>
  <defs>
    <linearGradient id="gradient" x1="0%" y1="0%" x2="100%" y2="100%">
      <stop offset="0%" style="stop-color:#22C55E"/>
      <stop offset="100%" style="stop-color:#16A34A"/>
    </linearGradient>
  </defs>
</svg>
